<svg xmlns="http://www.w3.org/2000/svg" id="eWMdc6KVjXs1" shape-rendering="geometricPrecision" text-rendering="geometricPrecision" viewBox="0 0 593 593"><style>@keyframes eWMdc6KVjXs3_ts__ts{0%,25%,50%,75%,to{transform:translate(296.5px,296.5px) scale(1,1)}12.5%,62.5%{transform:translate(296.5px,296.5px) scale(1.05,1.05)}37.5%,87.5%{transform:translate(296.5px,296.5px) scale(.95,.95)}}@keyframes eWMdc6KVjXs4_ts__ts{0%,50%,to{transform:translate(293.784px,296.5px) scale(1.05,1.05)}12.5%,37.5%,62.5%,87.5%{transform:translate(293.784px,296.5px) scale(1,1)}25%,75%{transform:translate(293.784px,296.5px) scale(.95,.95)}}@keyframes eWMdc6KVjXs12_to__to{0%{transform:translate(335.89px,341.5px)}18.75%,to{transform:translate(335.891906px,347px)}}@keyframes eWMdc6KVjXs12_ts__ts{0%{transform:scale(.5,.5)}18.75%,to{transform:scale(1,1)}}@keyframes eWMdc6KVjXs12__tt{0%{transform:translate(-490px,-295px)}18.75%,to{transform:translate(-335.893005px,-341.5px)}}@keyframes eWMdc6KVjXs12_c_o{0%{opacity:0}18.75%,to{opacity:1}}@keyframes eWMdc6KVjXs23_to__to{0%,12.5%{transform:translate(343.350201px,313.349918px)}31.25%,to{transform:translate(238.1054px,284.730202px)}}@keyframes eWMdc6KVjXs23_ts__ts{0%,12.5%{transform:scale(.4,.4)}31.25%,to{transform:scale(1,1)}}@keyframes eWMdc6KVjXs23__tt{0%,12.5%,31.25%,to{transform:translate(-238.1054px,-284.730202px)}}@keyframes eWMdc6KVjXs23_c_o{0%,12.5%{opacity:0}31.25%,to{opacity:1}}</style><circle r="296.5" fill="#e064cc" fill-opacity=".05" transform="translate(296.5 296.5)"/><circle r="258.476" fill="#e064cc" fill-opacity=".05" style="animation:eWMdc6KVjXs3_ts__ts 8000ms linear infinite alternate forwards" transform="translate(296.5 296.5)"/><circle r="212.303" fill="#e064cc" fill-opacity=".05" style="animation:eWMdc6KVjXs4_ts__ts 8000ms linear infinite alternate forwards" transform="matrix(1.05 0 0 1.05 293.784 296.5)"/><rect width="256.212" height="354.895" fill="#fff" rx="3.621" ry="3.621" transform="translate(174.731 104.115)"/><rect width="206" height="36" fill="#f3f3f3" rx="1.811" ry="1.811" transform="translate(200 194)"/><rect width="206" height="36" fill="#f3f3f3" rx="1.811" ry="1.811" transform="translate(200 245)"/><rect width="206" height="36" fill="#f3f3f3" rx="1.811" ry="1.811" transform="translate(200 143)"/><rect width="206" height="36" fill="#f3f3f3" rx="1.811" ry="1.811" transform="translate(200 347)"/><rect width="206" height="36" fill="#f3f3f3" rx="1.811" ry="1.811" transform="translate(200 398)"/><rect width="206" height="36" fill="#f3f3f3" rx="1.811" ry="1.811" transform="translate(200 296)"/><g style="animation:eWMdc6KVjXs12_to__to 8000ms linear infinite alternate forwards"><g style="animation:eWMdc6KVjXs12_ts__ts 8000ms linear infinite alternate forwards"><g opacity="0" style="animation-name:eWMdc6KVjXs12__tt,eWMdc6KVjXs12_c_o;animation-duration:8000ms;animation-fill-mode:forwards;animation-timing-function:linear;animation-direction:alternate;animation-iteration-count:infinite" transform="matrix(.5 0 0 .5 90.89 194)"><rect width="231.786" height="69" fill="#fff" rx="2.68" ry="2.68" transform="translate(220 307)"/><rect width="152.738" height="11.388" fill="#66c085" fill-opacity=".11" rx="1.34" ry="1.34" transform="translate(283.641 320.398)"/><rect width="38.854" height="11.388" fill="#66c085" fill-opacity=".11" rx="1.34" ry="1.34" transform="translate(283.641 339.155)"/><rect width="44.883" height="42.874" fill="#66c085" rx="2.68" ry="2.68" transform="translate(230.049 320.398)"/><g clip-path="url(#eWMdc6KVjXs21)"><path fill="none" stroke="#fff" stroke-linecap="round" stroke-linejoin="round" stroke-width="1.34" d="M258.184 336.476h-12.058c-.74 0-1.34.6-1.34 1.34v8.038c0 .74.6 1.34 1.34 1.34h12.058c.74 0 1.34-.6 1.34-1.34v-8.038c0-.74-.6-1.34-1.34-1.34ZM244.786 340.495h14.738"/><clipPath id="eWMdc6KVjXs21"><rect width="16.078" height="16.078" fill="#fff" rx="0" ry="0" transform="translate(244.117 333.796)"/></clipPath></g></g></g></g><g style="animation:eWMdc6KVjXs23_to__to 8000ms linear infinite alternate forwards"><g style="animation:eWMdc6KVjXs23_ts__ts 8000ms linear infinite alternate forwards"><g opacity="0" style="animation-name:eWMdc6KVjXs23__tt,eWMdc6KVjXs23_c_o;animation-duration:8000ms;animation-fill-mode:forwards;animation-timing-function:linear;animation-direction:alternate;animation-iteration-count:infinite" transform="matrix(.4 0 0 .4 248.108 199.458)"><rect width="52.51" height="15.391" fill="#fceffa" rx="1.811" ry="1.811" transform="translate(197 240.35)"/><rect width="313.249" height="93.25" fill="#fff" rx="3.621" ry="3.621" transform="translate(81.48 238.105)"/><rect width="206.418" height="15.391" fill="#fceffa" rx="1.811" ry="1.811" transform="translate(167.489 256.212)"/><rect width="52.51" height="15.391" fill="#fceffa" rx="1.811" ry="1.811" transform="translate(167.489 281.562)"/><rect width="60.658" height="57.942" fill="#fd377e" rx="3.621" ry="3.621" transform="translate(95.061 256.212)"/><g clip-path="url(#eWMdc6KVjXs33)"><path fill="none" stroke="#fff" stroke-linecap="round" stroke-linejoin="round" stroke-width="1.811" d="M133.086 277.94h-16.297c-1 0-1.81.811-1.81 1.811v10.864c0 1 .81 1.811 1.81 1.811h16.297c1 0 1.81-.811 1.81-1.811v-10.864c0-1-.81-1.811-1.81-1.811ZM114.979 283.373h19.917"/><clipPath id="eWMdc6KVjXs33"><rect width="21.728" height="21.728" fill="#fff" rx="0" ry="0" transform="translate(114.073 274.319)"/></clipPath></g></g></g></g></svg>