<svg id="eWMdc6KVjXs1" xmlns="http://www.w3.org/2000/svg" xmlns:xlink="http://www.w3.org/1999/xlink" viewBox="0 0 593 593" shape-rendering="geometricPrecision" text-rendering="geometricPrecision">
<style><![CDATA[
#eWMdc6KVjXs3_ts {animation: eWMdc6KVjXs3_ts__ts 8000ms linear infinite alternate forwards}@keyframes eWMdc6KVjXs3_ts__ts { 0% {transform: translate(296.5px,296.5px) scale(1,1)} 12.5% {transform: translate(296.5px,296.5px) scale(1.05,1.05)} 25% {transform: translate(296.5px,296.5px) scale(1,1)} 37.5% {transform: translate(296.5px,296.5px) scale(0.95,0.95)} 50% {transform: translate(296.5px,296.5px) scale(1,1)} 62.5% {transform: translate(296.5px,296.5px) scale(1.05,1.05)} 75% {transform: translate(296.5px,296.5px) scale(1,1)} 87.5% {transform: translate(296.5px,296.5px) scale(0.95,0.95)} 100% {transform: translate(296.5px,296.5px) scale(1,1)}} #eWMdc6KVjXs4_ts {animation: eWMdc6KVjXs4_ts__ts 8000ms linear infinite alternate forwards}@keyframes eWMdc6KVjXs4_ts__ts { 0% {transform: translate(293.784px,296.5px) scale(1.05,1.05)} 12.5% {transform: translate(293.784px,296.5px) scale(1,1)} 25% {transform: translate(293.784px,296.5px) scale(0.95,0.95)} 37.5% {transform: translate(293.784px,296.5px) scale(1,1)} 50% {transform: translate(293.784px,296.5px) scale(1.05,1.05)} 62.5% {transform: translate(293.784px,296.5px) scale(1,1)} 75% {transform: translate(293.784px,296.5px) scale(0.95,0.95)} 87.5% {transform: translate(293.784px,296.5px) scale(1,1)} 100% {transform: translate(293.784px,296.5px) scale(1.05,1.05)}} #eWMdc6KVjXs12_to {animation: eWMdc6KVjXs12_to__to 8000ms linear infinite alternate forwards}@keyframes eWMdc6KVjXs12_to__to { 0% {transform: translate(335.89px,341.5px)} 18.75% {transform: translate(335.891906px,347px)} 100% {transform: translate(335.891906px,347px)}} #eWMdc6KVjXs12_ts {animation: eWMdc6KVjXs12_ts__ts 8000ms linear infinite alternate forwards}@keyframes eWMdc6KVjXs12_ts__ts { 0% {transform: scale(0.5,0.5)} 18.75% {transform: scale(1,1)} 100% {transform: scale(1,1)}} #eWMdc6KVjXs12 {animation-name: eWMdc6KVjXs12__tt, eWMdc6KVjXs12_c_o;animation-duration: 8000ms;animation-fill-mode: forwards;animation-timing-function: linear;animation-direction: alternate;animation-iteration-count: infinite;}@keyframes eWMdc6KVjXs12__tt { 0% {transform: translate(-490px,-295px)} 18.75% {transform: translate(-335.893005px,-341.5px)} 100% {transform: translate(-335.893005px,-341.5px)}}@keyframes eWMdc6KVjXs12_c_o { 0% {opacity: 0} 18.75% {opacity: 1} 100% {opacity: 1}} #eWMdc6KVjXs23_to {animation: eWMdc6KVjXs23_to__to 8000ms linear infinite alternate forwards}@keyframes eWMdc6KVjXs23_to__to { 0% {transform: translate(343.350201px,313.349918px)} 12.5% {transform: translate(343.350201px,313.349918px)} 31.25% {transform: translate(238.1054px,284.730202px)} 100% {transform: translate(238.1054px,284.730202px)}} #eWMdc6KVjXs23_ts {animation: eWMdc6KVjXs23_ts__ts 8000ms linear infinite alternate forwards}@keyframes eWMdc6KVjXs23_ts__ts { 0% {transform: scale(0.4,0.4)} 12.5% {transform: scale(0.4,0.4)} 31.25% {transform: scale(1,1)} 100% {transform: scale(1,1)}} #eWMdc6KVjXs23 {animation-name: eWMdc6KVjXs23__tt, eWMdc6KVjXs23_c_o;animation-duration: 8000ms;animation-fill-mode: forwards;animation-timing-function: linear;animation-direction: alternate;animation-iteration-count: infinite;}@keyframes eWMdc6KVjXs23__tt { 0% {transform: translate(-238.1054px,-284.730202px)} 12.5% {transform: translate(-238.1054px,-284.730202px)} 31.25% {transform: translate(-238.1054px,-284.730202px)} 100% {transform: translate(-238.1054px,-284.730202px)}}@keyframes eWMdc6KVjXs23_c_o { 0% {opacity: 0} 12.5% {opacity: 0} 31.25% {opacity: 1} 100% {opacity: 1}}
]]></style>
<circle r="296.5" transform="translate(296.5 296.5)" fill="#e064cc" fill-opacity="0.05"/><g id="eWMdc6KVjXs3_ts" transform="translate(296.5,296.5) scale(1,1)"><circle r="258.476" transform="translate(0,0)" fill="#e064cc" fill-opacity="0.05"/></g><g id="eWMdc6KVjXs4_ts" transform="translate(293.784,296.5) scale(1.05,1.05)"><circle r="212.303" transform="translate(0,0)" fill="#e064cc" fill-opacity="0.05"/></g><rect width="256.212" height="354.895" rx="3.62137" ry="3.62137" transform="translate(174.731 104.115)" fill="#fff"/><rect width="206" height="36" rx="1.81069" ry="1.81069" transform="translate(200 194)" fill="#f3f3f3"/><rect width="206" height="36" rx="1.81069" ry="1.81069" transform="translate(200 245)" fill="#f3f3f3"/><rect width="206" height="36" rx="1.81069" ry="1.81069" transform="translate(200 143)" fill="#f3f3f3"/><rect width="206" height="36" rx="1.81069" ry="1.81069" transform="translate(200 347)" fill="#f3f3f3"/><rect width="206" height="36" rx="1.81069" ry="1.81069" transform="translate(200 398)" fill="#f3f3f3"/><rect width="206" height="36" rx="1.81069" ry="1.81069" transform="translate(200 296)" fill="#f3f3f3"/><g id="eWMdc6KVjXs12_to" transform="translate(335.89,341.5)"><g id="eWMdc6KVjXs12_ts" transform="scale(0.5,0.5)"><g id="eWMdc6KVjXs12" transform="translate(-490,-295)" opacity="0"><rect width="231.786" height="69" rx="2.67961" ry="2.67961" transform="translate(220 307)" fill="#fff"/><rect width="152.738" height="11.3883" rx="1.33981" ry="1.33981" transform="translate(283.641 320.398)" fill="#66c085" fill-opacity="0.11"/><rect width="38.8544" height="11.3883" rx="1.33981" ry="1.33981" transform="translate(283.641 339.155)" fill="#66c085" fill-opacity="0.11"/><rect width="44.8835" height="42.8738" rx="2.67961" ry="2.67961" transform="translate(230.049 320.398)" fill="#66c085"/><g clip-path="url(#eWMdc6KVjXs21)"><g><path d="M258.184,336.476h-12.058c-.74,0-1.34.6-1.34,1.34v8.038c0,.74.6,1.34,1.34,1.34h12.058c.74,0,1.34-.6,1.34-1.34v-8.038c0-.74-.6-1.34-1.34-1.34Z" fill="none" stroke="#fff" stroke-width="1.33981" stroke-linecap="round" stroke-linejoin="round"/><path d="M244.786,340.495h14.738" fill="none" stroke="#fff" stroke-width="1.33981" stroke-linecap="round" stroke-linejoin="round"/></g><clipPath id="eWMdc6KVjXs21"><rect width="16.0777" height="16.0777" rx="0" ry="0" transform="translate(244.117 333.796)" fill="#fff"/></clipPath></g></g></g></g><g id="eWMdc6KVjXs23_to" transform="translate(343.350201,313.349918)"><g id="eWMdc6KVjXs23_ts" transform="scale(0.4,0.4)"><g id="eWMdc6KVjXs23" transform="translate(-238.1054,-284.730202)" opacity="0"><rect width="52.5099" height="15.3908" rx="1.81069" ry="1.81069" transform="translate(197 240.35)" fill="#fceffa"/><rect width="313.249" height="93.2504" rx="3.62137" ry="3.62137" transform="translate(81.4809 238.105)" fill="#fff"/><rect width="206.418" height="15.3908" rx="1.81069" ry="1.81069" transform="translate(167.489 256.212)" fill="#fceffa"/><rect width="52.5099" height="15.3908" rx="1.81069" ry="1.81069" transform="translate(167.489 281.562)" fill="#fceffa"/><rect width="60.658" height="57.942" rx="3.62137" ry="3.62137" transform="translate(95.061 256.212)" fill="#fd377e"/><g clip-path="url(#eWMdc6KVjXs33)"><g><path d="M133.086,277.94h-16.297c-1,0-1.81.811-1.81,1.811v10.864c0,1,.81,1.811,1.81,1.811h16.297c1,0,1.81-.811,1.81-1.811v-10.864c0-1-.81-1.811-1.81-1.811Z" fill="none" stroke="#fff" stroke-width="1.81069" stroke-linecap="round" stroke-linejoin="round"/><path d="M114.979,283.373h19.917" fill="none" stroke="#fff" stroke-width="1.81069" stroke-linecap="round" stroke-linejoin="round"/></g><clipPath id="eWMdc6KVjXs33"><rect width="21.7282" height="21.7282" rx="0" ry="0" transform="translate(114.073 274.319)" fill="#fff"/></clipPath></g></g></g></g></svg>
